<svg width="16" height="13" viewBox="0 0 16 13" fill="none" xmlns="http://www.w3.org/2000/svg">
<path d="M13.1412 0.201172C13.7777 0.201172 14.3881 0.454028 14.8382 0.904116C15.2883 1.3542 15.5412 1.96465 15.5412 2.60117V10.2812C15.5412 10.9177 15.2883 11.5281 14.8382 11.9782C14.3881 12.4283 13.7777 12.6812 13.1412 12.6812H2.58115C1.94463 12.6812 1.33418 12.4283 0.884096 11.9782C0.434009 11.5281 0.181152 10.9177 0.181152 10.2812V2.60117C0.181152 1.96465 0.434009 1.3542 0.884096 0.904116C1.33418 0.454028 1.94463 0.201172 2.58115 0.201172H13.1412ZM14.5812 4.00373L8.10499 7.81493C8.04377 7.85088 7.97533 7.8728 7.90461 7.87911C7.83389 7.88541 7.76265 7.87596 7.69603 7.85141L7.61731 7.81493L1.14115 4.00565V10.2812C1.14115 10.6631 1.29287 11.0294 1.56292 11.2994C1.83297 11.5695 2.19924 11.7212 2.58115 11.7212H13.1412C13.5231 11.7212 13.8893 11.5695 14.1594 11.2994C14.4294 11.0294 14.5812 10.6631 14.5812 10.2812V4.00373ZM13.1412 1.16117H2.58115C2.19924 1.16117 1.83297 1.31289 1.56292 1.58294C1.29287 1.85299 1.14115 2.21926 1.14115 2.60117V2.89109L7.86115 6.84437L14.5812 2.88917V2.60117C14.5812 2.21926 14.4294 1.85299 14.1594 1.58294C13.8893 1.31289 13.5231 1.16117 13.1412 1.16117Z" fill="#FF0000"/>
</svg>
