<svg width="36" height="36" viewBox="0 0 36 36" fill="none" xmlns="http://www.w3.org/2000/svg">
<g clip-path="url(#clip0_399_407)">
<path d="M0.504395 10.4688C0.504395 5.02604 4.91666 0.61377 10.3595 0.61377H25.6493C31.0921 0.61377 35.5044 5.02604 35.5044 10.4688V25.7587C35.5044 31.2015 31.0921 35.6138 25.6493 35.6138H10.3595C4.91666 35.6138 0.504395 31.2015 0.504395 25.7587V10.4688Z" fill="black"/>
<circle cx="18.0044" cy="18.1138" r="17.5" fill="black"/>
<path d="M24.521 23.4657L25.2984 18.5264H20.4354V15.3225C20.4354 13.9709 21.1135 12.6526 23.2916 12.6526H25.5039V8.44751C25.5039 8.44751 23.497 8.11377 21.5792 8.11377C17.5725 8.11377 14.956 10.4799 14.956 14.7618V18.5264H10.5039V23.4657H14.956V35.4069C15.8498 35.5437 16.7642 35.6138 17.6957 35.6138C18.6272 35.6138 19.5416 35.5437 20.4354 35.4069V23.4657H24.521Z" fill="white"/>
</g>
<defs>
<clipPath id="clip0_399_407">
<rect x="0.98291" y="0.80127" width="35" height="35" rx="17.5" fill="white"/>
</clipPath>
</defs>
</svg>
