<svg width="36" height="36" viewBox="0 0 36 36" fill="none" xmlns="http://www.w3.org/2000/svg">
<g clip-path="url(#clip0_399_405)">
<rect x="0.779785" y="0.61377" width="35" height="35" rx="7.3913" fill="black"/>
<rect x="0.779785" y="0.61377" width="35" height="35" rx="7.3913" fill="black"/>
<rect x="0.779785" y="0.61377" width="35" height="35" rx="7.3913" fill="black"/>
<path d="M27.0295 11.2383C27.0295 12.2738 26.1901 13.1133 25.1545 13.1133C24.119 13.1133 23.2795 12.2738 23.2795 11.2383C23.2795 10.2027 24.119 9.36328 25.1545 9.36328C26.1901 9.36328 27.0295 10.2027 27.0295 11.2383Z" fill="white"/>
<path fill-rule="evenodd" clip-rule="evenodd" d="M18.2795 24.3633C21.7313 24.3633 24.5295 21.5651 24.5295 18.1133C24.5295 14.6615 21.7313 11.8633 18.2795 11.8633C14.8278 11.8633 12.0295 14.6615 12.0295 18.1133C12.0295 21.5651 14.8278 24.3633 18.2795 24.3633ZM18.2795 21.8633C20.3506 21.8633 22.0295 20.1844 22.0295 18.1133C22.0295 16.0422 20.3506 14.3633 18.2795 14.3633C16.2085 14.3633 14.5295 16.0422 14.5295 18.1133C14.5295 20.1844 16.2085 21.8633 18.2795 21.8633Z" fill="white"/>
<path fill-rule="evenodd" clip-rule="evenodd" d="M5.77954 17.6133C5.77954 13.4129 5.77954 11.3127 6.59699 9.70835C7.31604 8.29714 8.4634 7.14978 9.87461 6.43073C11.479 5.61328 13.5791 5.61328 17.7795 5.61328H18.7795C22.9799 5.61328 25.0801 5.61328 26.6845 6.43073C28.0957 7.14978 29.243 8.29714 29.9621 9.70835C30.7795 11.3127 30.7795 13.4129 30.7795 17.6133V18.6133C30.7795 22.8137 30.7795 24.9139 29.9621 26.5182C29.243 27.9294 28.0957 29.0768 26.6845 29.7958C25.0801 30.6133 22.9799 30.6133 18.7795 30.6133H17.7795C13.5791 30.6133 11.479 30.6133 9.87461 29.7958C8.4634 29.0768 7.31604 27.9294 6.59699 26.5182C5.77954 24.9139 5.77954 22.8137 5.77954 18.6133V17.6133ZM17.7795 8.11328H18.7795C20.921 8.11328 22.3767 8.11523 23.5019 8.20716C24.598 8.29671 25.1585 8.45902 25.5495 8.65825C26.4903 9.13762 27.2552 9.90252 27.7346 10.8433C27.9338 11.2343 28.0961 11.7948 28.1857 12.8909C28.2776 14.0161 28.2795 15.4718 28.2795 17.6133V18.6133C28.2795 20.7547 28.2776 22.2105 28.1857 23.3357C28.0961 24.4317 27.9338 24.9922 27.7346 25.3832C27.2552 26.324 26.4903 27.0889 25.5495 27.5683C25.1585 27.7675 24.598 27.9299 23.5019 28.0194C22.3767 28.1113 20.921 28.1133 18.7795 28.1133H17.7795C15.6381 28.1133 14.1824 28.1113 13.0571 28.0194C11.9611 27.9299 11.4006 27.7675 11.0096 27.5683C10.0688 27.0889 9.30388 26.324 8.82451 25.3832C8.62528 24.9922 8.46297 24.4317 8.37342 23.3357C8.28149 22.2105 8.27954 20.7547 8.27954 18.6133V17.6133C8.27954 15.4718 8.28149 14.0161 8.37342 12.8909C8.46297 11.7948 8.62528 11.2343 8.82451 10.8433C9.30388 9.90252 10.0688 9.13762 11.0096 8.65825C11.4006 8.45902 11.9611 8.29671 13.0571 8.20716C14.1824 8.11523 15.6381 8.11328 17.7795 8.11328Z" fill="white"/>
</g>
<defs>
<clipPath id="clip0_399_405">
<rect width="35" height="35" fill="white" transform="translate(0.98291 0.80127)"/>
</clipPath>
</defs>
</svg>
