<svg width="226" height="75" viewBox="0 0 226 75" fill="none" xmlns="http://www.w3.org/2000/svg">
<g clip-path="url(#clip0_399_165)">
<path d="M105.435 45.625L102.06 32.75L98.6848 45.625H93.0598L87.8098 25.5H93.3098L96.1848 38.875C96.1848 38.75 99.8098 25.5 99.8098 25.5H105.06L108.185 38.75L110.935 25.5H116.06L110.685 45.625H105.435Z" fill="#0C2400"/>
<path d="M133.06 45.625V37.75H125.685V45.625H120.56V25.5H125.685V33.25H133.06V25.5H138.185V45.625H133.06Z" fill="#0C2400"/>
<path d="M144.685 45.625V25.5H156.685V29.75H149.81V33.375H156.185V37.625H149.81V41.375H157.06V45.625H144.685Z" fill="#0C2400"/>
<path d="M166.31 45.625V38.5L159.935 25.5H165.685L168.935 33C168.935 33 168.935 33.125 169.06 33.5C169.06 33.375 169.185 33.25 169.185 33.125L172.435 25.625H177.81L171.31 38.625V45.875H166.31V45.625Z" fill="#0C2400"/>
<path d="M181.435 46C180.685 46 179.935 45.75 179.435 45.25C178.935 44.75 178.56 44.125 178.56 43.375C178.56 42.625 178.81 42 179.435 41.5C179.935 41 180.685 40.75 181.435 40.75C182.31 40.75 182.935 41 183.435 41.5C183.935 42 184.185 42.625 184.185 43.375C184.185 44.125 183.935 44.75 183.31 45.25C182.935 45.75 182.31 46 181.435 46Z" fill="#0C2400"/>
<path d="M200.685 45.625L194.935 37.125V45.625H189.935V25.5H194.935V33.75L200.435 25.5H206.56L199.435 35.125L207.06 45.625H200.685Z" fill="#0C2400"/>
<path d="M209.06 45.625V42.75L218.685 29.75H209.81V25.5H225.435V28.375L215.935 41.375H225.435V45.625H209.06Z" fill="#0C2400"/>
<path d="M94.3096 55C93.6846 55 93.3096 55.25 92.9346 55.625C92.5596 56 92.4346 56.625 92.4346 57.375C92.4346 58.125 92.5596 58.75 92.9346 59.125C93.3096 59.5 93.6846 59.75 94.3096 59.75C94.5596 59.75 94.8096 59.75 95.0596 59.625C95.3096 59.625 95.5596 59.5 95.8096 59.375V60.25C95.3096 60.5 94.8096 60.5 94.1846 60.5C93.3096 60.5 92.5596 60.25 92.0596 59.625C91.5596 59.125 91.3096 58.25 91.3096 57.25C91.3096 56.625 91.4346 56 91.6846 55.5C91.9346 55 92.3096 54.625 92.6846 54.375C93.1846 54.125 93.6846 54 94.3096 54C94.9346 54 95.5596 54.125 96.0596 54.375L95.6846 55.25C95.4346 55.125 95.3096 55.125 95.0596 55C94.8096 55 94.5596 55 94.3096 55Z" fill="#54AE00"/>
<path d="M102.685 60.5H101.685V55.125H98.9346V60.5H97.9346V54.25H102.81V60.5H102.685Z" fill="#54AE00"/>
<path d="M110.56 57.375C110.56 58.375 110.31 59.25 109.81 59.75C109.31 60.375 108.56 60.625 107.685 60.625C106.685 60.625 106.06 60.375 105.56 59.75C105.06 59.125 104.81 58.375 104.81 57.375C104.81 56.375 105.06 55.5 105.56 55C106.06 54.5 106.81 54.125 107.685 54.125C108.56 54.125 109.31 54.375 109.81 55C110.31 55.5 110.56 56.375 110.56 57.375ZM105.81 57.375C105.81 58.125 105.935 58.75 106.31 59.125C106.685 59.5 107.06 59.75 107.685 59.75C108.31 59.75 108.81 59.5 109.06 59.125C109.31 58.75 109.56 58.125 109.56 57.375C109.56 56.625 109.435 56 109.06 55.625C108.81 55.25 108.31 55 107.685 55C107.06 55 106.56 55.25 106.31 55.625C105.935 56 105.81 56.625 105.81 57.375Z" fill="#54AE00"/>
<path d="M116.81 56.125C116.81 56.75 116.56 57.25 116.185 57.625C115.81 58 115.185 58.125 114.31 58.125H113.685V60.5H112.685V54.25H114.435C115.185 54.25 115.81 54.375 116.185 54.75C116.56 55 116.81 55.5 116.81 56.125ZM113.685 57.25H114.185C114.685 57.25 115.06 57.125 115.31 57C115.56 56.875 115.685 56.5 115.685 56.125C115.685 55.75 115.56 55.5 115.31 55.375C115.06 55.25 114.685 55.125 114.31 55.125H113.56V57.25H113.685Z" fill="#54AE00"/>
<path d="M120.81 60.5H119.81V55.125H117.935V54.25H122.685V55.125H120.81V60.5Z" fill="#54AE00"/>
<path d="M124.31 54.25H125.31V57.5C125.31 57.875 125.31 58.125 125.31 58.5C125.31 58.875 125.31 59.125 125.31 59.25L128.56 54.25H129.81V60.5H128.81V57.25C128.81 56.75 128.81 56.125 128.935 55.5L125.685 60.5H124.435V54.25H124.31Z" fill="#54AE00"/>
<path d="M131.934 54.25H133.809C134.684 54.25 135.309 54.375 135.684 54.625C136.059 54.875 136.309 55.25 136.309 55.875C136.309 56.25 136.184 56.5 136.059 56.75C135.809 57 135.559 57.125 135.184 57.25C135.684 57.375 135.934 57.5 136.184 57.75C136.434 58 136.434 58.375 136.434 58.75C136.434 59.375 136.184 59.75 135.809 60.125C135.434 60.5 134.809 60.625 134.184 60.625H131.934V54.25ZM132.934 56.75H133.934C134.309 56.75 134.684 56.625 134.934 56.5C135.184 56.375 135.184 56.125 135.184 55.75C135.184 55.5 135.059 55.25 134.809 55.125C134.559 55 134.309 54.875 133.809 54.875H132.934V56.75ZM132.934 57.625V59.625H134.059C134.434 59.625 134.809 59.5 135.059 59.375C135.309 59.25 135.434 59 135.434 58.625C135.434 58.25 135.309 58 135.059 57.875C134.809 57.75 134.434 57.625 134.059 57.625H132.934V57.625Z" fill="#54AE00"/>
<path d="M143.31 60.5H142.31V57.625H139.435V60.5H138.435V54.25H139.435V56.875H142.31V54.25H143.31V60.5Z" fill="#54AE00"/>
<path d="M151.31 57.375C151.31 58.375 151.06 59.25 150.56 59.75C150.06 60.375 149.31 60.625 148.435 60.625C147.435 60.625 146.81 60.375 146.31 59.75C145.81 59.125 145.56 58.375 145.56 57.375C145.56 56.375 145.81 55.5 146.31 55C146.81 54.5 147.56 54.125 148.435 54.125C149.31 54.125 150.06 54.375 150.56 55C150.935 55.5 151.31 56.375 151.31 57.375ZM146.435 57.375C146.435 58.125 146.56 58.75 146.935 59.125C147.31 59.5 147.685 59.75 148.31 59.75C148.935 59.75 149.435 59.5 149.685 59.125C149.935 58.75 150.185 58.125 150.185 57.375C150.185 56.625 150.06 56 149.685 55.625C149.435 55.25 148.935 55 148.31 55C147.685 55 147.185 55.25 146.935 55.625C146.56 56 146.435 56.625 146.435 57.375Z" fill="#54AE00"/>
<path d="M156.81 60.5H153.31V54.25H156.81V55.125H154.31V56.875H156.685V57.75H154.31V59.75H156.81V60.5Z" fill="#54AE00"/>
<path d="M166.56 60.5H165.56V55.125H162.81V60.5H161.81V54.25H166.685V60.5H166.56Z" fill="#54AE00"/>
<path d="M168.935 54.25H169.935V57.5C169.935 57.875 169.935 58.125 169.935 58.5C169.935 58.875 169.935 59.125 169.935 59.25L173.185 54.25H174.435V60.5H173.435V57.25C173.435 56.75 173.435 56.125 173.56 55.5L170.31 60.5H169.06V54.25H168.935Z" fill="#54AE00"/>
<path d="M178.684 60.5H177.684V55.125H175.809V54.25H180.559V55.125H178.684V60.5Z" fill="#54AE00"/>
<path d="M186.06 60.5L185.435 58.75H183.06L182.435 60.5H181.31L183.685 54.25H184.81L187.185 60.5H186.06ZM185.185 57.875L184.56 56.125C184.56 56 184.435 55.875 184.435 55.625C184.31 55.375 184.31 55.25 184.31 55.125C184.185 55.5 184.06 55.875 183.935 56.25L183.31 57.875H185.185Z" fill="#54AE00"/>
<path d="M193.56 60.5H192.56V57.625H189.685V60.5H188.685V54.25H189.685V56.875H192.56V54.25H193.56V60.5Z" fill="#54AE00"/>
<path d="M195.935 54.25H196.935V57.5C196.935 57.875 196.935 58.125 196.935 58.5C196.935 58.875 196.935 59.125 196.935 59.25L200.185 54.25H201.435V60.5H200.435V57.25C200.435 56.75 200.435 56.125 200.56 55.5L197.31 60.5H196.06V54.25H195.935Z" fill="#54AE00"/>
<path d="M207.059 60.5H203.559V54.25H207.059V55.125H204.559V56.875H206.934V57.75H204.559V59.75H207.059V60.5Z" fill="#54AE00"/>
<path d="M20.3098 14.375C25.4348 10.25 31.9348 7.75 39.0598 7.75C46.1848 7.75 52.6848 10.25 57.8098 14.375C58.6848 12.625 60.4348 10.5 63.5598 9.125C56.9348 3.375 48.4348 0 39.0598 0C29.6848 0 21.1848 3.375 14.5598 9C17.6848 10.375 19.4348 12.625 20.3098 14.375Z" fill="url(#paint0_linear_399_165)"/>
<path d="M68.3098 13.875C68.4348 14.875 68.8098 15.875 69.3098 16.75C66.5598 17 64.5598 18.25 63.3098 19.875C66.9348 24.875 69.1848 31 69.1848 37.625C69.1848 54.125 55.8098 67.625 39.1848 67.625C22.6848 67.625 9.18481 54.25 9.18481 37.625C9.18481 31 11.3098 24.875 15.0598 19.875C13.8098 18.125 11.8098 16.875 9.05981 16.75C9.55981 15.875 9.80981 14.875 10.0598 13.875C4.80981 20.375 1.55981 28.625 1.55981 37.75C1.55981 58.625 18.4348 75.5 39.1848 75.5C60.0598 75.5 76.9348 58.625 76.9348 37.75C76.8098 28.625 73.5598 20.375 68.3098 13.875Z" fill="url(#paint1_linear_399_165)"/>
<path d="M4.68506 22.375C2.56006 27.125 1.43506 32.25 1.43506 37.75C1.43506 58.625 18.3101 75.5 39.0601 75.5C59.9351 75.5 76.8101 58.625 76.8101 37.75C76.8101 29.125 73.9351 21.25 69.0601 15L68.5601 15.25C68.6851 15.75 68.9351 16.375 69.1851 16.875C66.4351 17.125 64.4351 18.375 63.1851 20C66.8101 25 69.0601 31.125 69.0601 37.75C69.0601 54.25 55.6851 67.75 39.0601 67.75C0.185059 67.625 2.93506 27.5 4.68506 22.375Z" fill="url(#paint2_linear_399_165)"/>
<path d="M68.5598 15.125C68.6848 15.625 68.9348 16.25 69.1848 16.75C66.4348 17 64.4348 18.25 63.1848 19.875C65.6848 23.25 67.4348 27.125 68.3098 31.375C74.9348 58.375 56.9348 73.75 41.3098 75.25C61.0598 74 76.6848 57.75 76.6848 37.625C76.6848 29 73.8098 21.125 68.9348 14.875L68.5598 15.125Z" fill="url(#paint3_linear_399_165)"/>
<path d="M68.5598 11.75C63.4348 11.75 61.3098 15.5 60.0598 18.125C57.1848 24.625 49.4348 44.875 49.4348 44.875L39.4348 29.75H38.4348L28.4348 44.875C28.4348 44.875 20.8098 24.625 17.8098 18.125C16.6848 15.5 14.5598 11.75 9.30981 11.75C7.30981 11.75 4.30981 12.5 0.434814 14.5L26.0598 61H27.1848L38.5598 44.875H39.5598L50.9348 61H52.0598L77.6848 14.5C73.9348 12.5 70.9348 11.75 68.5598 11.75Z" fill="url(#paint4_linear_399_165)"/>
<path d="M14.5598 9.00013C17.6848 10.3751 19.3098 12.5001 20.3098 14.2501C25.4348 10.1251 31.9348 7.62514 39.0598 7.62514C46.1848 7.62514 52.6848 10.1251 57.8098 14.2501C46.6848 -1.74987 22.3098 4.00013 14.5598 9.00013Z" fill="url(#paint5_linear_399_165)"/>
</g>
<defs>
<linearGradient id="paint0_linear_399_165" x1="33.6507" y1="7.3615" x2="57.3083" y2="16.1772" gradientUnits="userSpaceOnUse">
<stop stop-color="#A5F237"/>
<stop offset="1" stop-color="#54AE00"/>
</linearGradient>
<linearGradient id="paint1_linear_399_165" x1="1.39181" y1="44.6244" x2="76.7684" y2="44.6244" gradientUnits="userSpaceOnUse">
<stop stop-color="#A5F237"/>
<stop offset="1" stop-color="#54AE00"/>
</linearGradient>
<linearGradient id="paint2_linear_399_165" x1="86.1173" y1="56.515" x2="2.53218" y2="29.3971" gradientUnits="userSpaceOnUse">
<stop stop-color="#A5F237"/>
<stop offset="1" stop-color="#54AE00"/>
</linearGradient>
<linearGradient id="paint3_linear_399_165" x1="58.8723" y1="59.8825" x2="61.6621" y2="26.8503" gradientUnits="userSpaceOnUse">
<stop stop-color="#96DB37"/>
<stop offset="1" stop-color="#54AE00"/>
</linearGradient>
<linearGradient id="paint4_linear_399_165" x1="8.74869" y1="39.003" x2="71.5753" y2="31.4148" gradientUnits="userSpaceOnUse">
<stop stop-color="#A5F237"/>
<stop offset="1" stop-color="#54AE00"/>
</linearGradient>
<linearGradient id="paint5_linear_399_165" x1="17.9339" y1="12.3309" x2="52.5851" y2="8.14563" gradientUnits="userSpaceOnUse">
<stop stop-color="#A5F237"/>
<stop offset="1" stop-color="#54AE00"/>
</linearGradient>
<clipPath id="clip0_399_165">
<rect width="225" height="75" fill="white" transform="translate(0.434814)"/>
</clipPath>
</defs>
</svg>
