<svg width="162" height="45" viewBox="0 0 162 45" fill="none" xmlns="http://www.w3.org/2000/svg">
<g clip-path="url(#clip0_399_157)">
<path d="M100.874 19.0223C119.307 11.6429 130.784 7.41518 161.2 0C144.682 1.08929 108.15 3.59821 82.9719 8.51339L100.874 19.0223Z" fill="#E41D1B"/>
<path d="M43.5522 43.4732H67.6594C72.4317 36.2456 77.1817 32.7188 82.713 28.7991C78.5255 27.1831 74.3201 25.6206 70.0433 24.1072C54.6594 30.8974 46.1014 40.0134 43.5701 43.4732" fill="#E41D1B"/>
<path d="M48.3158 17.1697C26.8247 24.8527 14.8738 33.192 6.80688 43.4732H33.423C36.0167 39.8661 45.8917 29.4554 64.4497 22.2188C59.3337 20.4866 50.4408 17.7099 48.3158 17.1697Z" fill="#E41D1B"/>
<path d="M59.347 0.990967H0.485352C59.8291 11.7053 88.4318 25.5044 134.414 44.9999C130.481 42.0624 67.1059 4.73204 59.3559 0.990967" fill="#E41D1B"/>
</g>
<defs>
<clipPath id="clip0_399_157">
<rect width="160.714" height="45" fill="white" transform="translate(0.485352)"/>
</clipPath>
</defs>
</svg>
