<svg width="111" height="75" viewBox="0 0 111 75" fill="none" xmlns="http://www.w3.org/2000/svg">
<g clip-path="url(#clip0_399_154)">
<path d="M55.0459 64.3566C55.0459 61.3963 57.4217 59.0206 60.382 59.0206C63.3423 59.0206 65.7169 61.3963 65.7169 64.3566C65.7169 67.3169 63.3423 69.6926 60.382 69.6926C57.4217 69.6926 55.0459 67.3169 55.0459 64.3566ZM76.754 64.3566C76.754 61.3963 79.1298 59.0206 82.0901 59.0206C85.0492 59.0206 87.425 61.3963 87.425 64.3566C87.425 67.3169 85.0492 69.6926 82.0901 69.6926C79.1298 69.6926 76.754 67.3169 76.754 64.3566ZM26.4312 64.3566C26.4312 61.3963 28.8059 59.0206 31.7673 59.0206C34.7265 59.0206 37.1022 61.3963 37.1022 64.3566C37.1022 67.3169 34.7265 69.6926 31.7673 69.6926C28.8059 69.6926 26.4312 67.3169 26.4312 64.3566ZM4.72315 64.3566C4.72315 61.3963 7.09778 59.0206 10.0581 59.0206C13.0195 59.0206 15.3941 61.3963 15.3941 64.3566C15.3941 67.3169 13.0195 69.6926 10.0581 69.6926C7.09778 69.6926 4.72315 67.3169 4.72315 64.3566ZM48.6136 54.9276H43.9724V73.6026H48.6136V54.9276ZM15.3577 73.6026H19.9989V54.9276H15.3577V56.4265C13.786 55.3301 11.8856 54.7092 9.83969 54.7092C4.50366 54.7092 0.191162 59.0206 0.191162 64.3566C0.191162 69.729 4.50366 74.004 9.83969 74.004C11.8856 74.004 13.786 73.3831 15.3577 72.2868V73.6026ZM87.3886 73.6026H92.0298V54.9276H87.3886V56.4265C85.8169 55.3301 83.9165 54.7092 81.8706 54.7092C76.5345 54.7092 72.2231 59.0206 72.2231 64.3566C72.2231 69.729 76.5345 74.004 81.8706 74.004C83.9165 74.004 85.8169 73.3831 87.3886 72.2868V73.6026ZM93.7481 67.5353C93.8937 71.2996 97.1099 73.9677 102.482 73.9677C106.868 73.9677 110.485 72.0673 110.485 67.8651C110.485 64.9412 108.841 63.2239 105.04 62.4926L102.08 61.9081C100.179 61.543 98.8636 61.1768 98.8636 60.0441C98.8636 58.8022 100.143 58.254 101.751 58.254C104.09 58.254 105.04 59.4232 105.113 60.8118H109.792C109.536 57.1566 106.612 54.7092 101.898 54.7092C97.0371 54.7092 94.1496 57.3761 94.1496 60.8482C94.1496 65.0879 97.5853 65.7816 100.546 66.3298L102.994 66.7687C104.748 67.0974 105.515 67.6092 105.515 68.6327C105.515 69.546 104.639 70.4592 102.555 70.4592C99.522 70.4592 98.5349 68.8886 98.4985 67.5353H93.7481ZM37.0658 48.5691V56.4265C35.4941 55.3301 33.5937 54.7092 31.5478 54.7092C26.2118 54.7092 21.8992 59.0206 21.8992 64.3566C21.8992 69.729 26.2118 74.004 31.5478 74.004C33.5937 74.004 35.4941 73.3831 37.0658 72.2868V73.6026H41.707V48.5691H37.0658ZM65.6805 48.5691V56.4265C64.1088 55.3301 62.2084 54.7092 60.1625 54.7092C54.8265 54.7092 50.5151 59.0206 50.5151 64.3566C50.5151 69.729 54.8265 74.004 60.1625 74.004C62.2084 74.004 64.1088 73.3831 65.6805 72.2868V73.6026H70.3217V48.5691H65.6805ZM12.2507 43.0511L15.3941 48.5691H37.0658L28.4772 33.7313L12.2507 43.0511ZM48.6136 53.2103V48.5691H65.6805L47.4809 17.0669L31.218 26.3857L43.9724 48.5691V53.2103H48.6136ZM72.5882 48.5691H94.2963L66.2287 0L50.0033 9.35515L72.5882 48.5691Z" fill="black"/>
</g>
<defs>
<clipPath id="clip0_399_154">
<rect width="110.294" height="75" fill="white" transform="translate(0.191162)"/>
</clipPath>
</defs>
</svg>
