<svg width="19" height="19" viewBox="0 0 19 19" fill="none" xmlns="http://www.w3.org/2000/svg">
<path d="M14.9014 18.8012C14.7262 18.8007 14.5516 18.7811 14.3804 18.7426C11.1227 18.0535 8.12149 16.4376 5.72218 14.0811C3.37407 11.7193 1.74552 8.71233 1.03359 5.42388C0.949645 5.01404 0.970249 4.589 1.09342 4.18967C1.21659 3.79033 1.43818 3.43012 1.73688 3.14371L3.8207 1.09262C3.92713 0.989688 4.05359 0.910863 4.19183 0.861292C4.33007 0.811721 4.47698 0.792518 4.62296 0.804937C4.77434 0.821086 4.92041 0.870952 5.05091 0.951027C5.18142 1.0311 5.29318 1.13944 5.37835 1.26843L7.98312 5.20545C8.0808 5.35821 8.12795 5.53901 8.11764 5.72122C8.10732 5.90344 8.04008 6.07746 7.92581 6.21768L6.61822 7.81593C7.13899 8.99461 7.8765 10.0599 8.7906 10.9538C9.69878 11.8802 10.7722 12.6198 11.9528 13.1328L13.573 11.8169C13.709 11.7069 13.8746 11.6419 14.0477 11.6305C14.2208 11.619 14.3932 11.6618 14.5419 11.7529L18.4751 14.3528C18.6101 14.4352 18.7251 14.5478 18.8115 14.6821C18.8979 14.8164 18.9534 14.969 18.974 15.1283C18.9945 15.2877 18.9795 15.4498 18.9301 15.6024C18.8807 15.755 18.7982 15.8942 18.6887 16.0096L16.657 18.066C16.4262 18.3009 16.1523 18.4868 15.851 18.6129C15.5497 18.7391 15.227 18.8031 14.9014 18.8012ZM4.19183 2.91728L2.37481 5.18947C2.20678 5.34959 2.16338 4.27308 2.09487 4.49726C2.02637 4.72144 2.32583 4.96 2.37481 5.18947C3.0368 8.27523 4.42069 10.2864 6.61822 12.5068C8.87614 14.7238 11.5285 16.6619 14.594 17.3095C14.8261 17.3591 14.88 17.3703 15.1073 17.3015C15.2297 17.2645 15.9893 16.5574 16.6907 15.886C16.7221 15.8559 16.7533 15.826 16.7844 15.7962C17.3489 15.2543 17.8545 14.7568 17.9281 14.6821L17.271 15.3263L16.9857 15.6024L13.8765 13.5233L12.3904 14.161C12.3238 14.2149 12.2453 14.2513 12.1617 14.2671C12.0782 14.2829 12.2095 14.5248 12.1284 14.4988C10.6837 13.9545 9.00599 13.3372 7.92581 12.2151C6.80855 11.1482 5.87507 9.34279 5.32253 7.88518C5.29916 7.79694 5.51569 7.70403 5.53759 7.6154C5.55949 7.52676 5.60332 7.44537 5.66487 7.37907L6.61822 6.21768L4.19183 2.91728Z" fill="#FF0000"/>
<path fill-rule="evenodd" clip-rule="evenodd" d="M16.9857 15.6024L16.7844 15.7962C16.7533 15.826 16.7221 15.8559 16.6907 15.886C16.7909 15.79 16.8899 15.6948 16.9857 15.6024Z" fill="#FF0000"/>
</svg>
