<svg width="36" height="36" viewBox="0 0 36 36" fill="none" xmlns="http://www.w3.org/2000/svg">
<g clip-path="url(#clip0_399_403)">
<path d="M1.05615 10.4688C1.05615 5.02604 5.46842 0.61377 10.9112 0.61377H26.2011C31.6439 0.61377 36.0562 5.02604 36.0562 10.4688V25.7587C36.0562 31.2015 31.6439 35.6138 26.2011 35.6138H10.9112C5.46842 35.6138 1.05615 31.2015 1.05615 25.7587V10.4688Z" fill="black"/>
<circle cx="18.5559" cy="18.1138" r="15.3125" fill="black"/>
<path d="M26.1977 11.7796C26.3341 10.8986 25.4964 10.2033 24.7131 10.5472L9.11142 17.3972C8.54968 17.6438 8.59077 18.4947 9.17338 18.6802L12.3908 19.7048C13.0049 19.9004 13.6699 19.7993 14.2061 19.4288L21.46 14.4172C21.6788 14.2661 21.9172 14.5771 21.7303 14.7698L16.5088 20.1532C16.0023 20.6755 16.1028 21.5603 16.7121 21.9424L22.5581 25.6085C23.2138 26.0196 24.0574 25.6066 24.18 24.8142L26.1977 11.7796Z" fill="white"/>
</g>
<defs>
<clipPath id="clip0_399_403">
<rect width="35" height="35" fill="white" transform="translate(0.98291 0.80127)"/>
</clipPath>
</defs>
</svg>
