<svg width="36" height="36" viewBox="0 0 36 36" fill="none" xmlns="http://www.w3.org/2000/svg">
<g clip-path="url(#clip0_399_412)">
<path d="M0.953613 10.4688C0.953613 5.02604 5.36588 0.61377 10.8087 0.61377H26.0985C31.5413 0.61377 35.9536 5.02604 35.9536 10.4688V25.7587C35.9536 31.2015 31.5413 35.6138 26.0985 35.6138H10.8087C5.36588 35.6138 0.953613 31.2015 0.953613 25.7587V10.4688Z" fill="black"/>
<path d="M15.6197 31.4987C12.4886 31.4987 9.56976 30.588 7.11304 29.0166C9.19887 29.1516 12.8799 28.8284 15.1695 26.6445C11.7252 26.4864 10.1719 23.8448 9.96928 22.7159C10.2619 22.8288 11.6577 22.9642 12.4456 22.6481C8.4835 21.6547 7.87568 18.1777 8.01075 17.1165C8.75364 17.6358 10.0143 17.8165 10.5096 17.7713C6.81762 15.1297 8.14582 11.1559 8.79866 10.298C11.4481 13.9686 15.4189 16.0302 20.3312 16.1448C20.2385 15.7386 20.1896 15.3157 20.1896 14.8813C20.1896 11.7639 22.7093 9.23682 25.8176 9.23682C27.4416 9.23682 28.9049 9.9267 29.9322 11.0302C31.0174 10.7759 32.6506 10.1806 33.4491 9.6658C33.0466 11.1108 31.7937 12.3162 31.0358 12.763C31.0421 12.7782 31.0296 12.7477 31.0358 12.763C31.7015 12.6623 33.5029 12.3161 34.2145 11.8333C33.8626 12.6451 32.5342 13.9948 31.444 14.7504C31.6469 23.6955 24.803 31.4987 15.6197 31.4987Z" fill="white"/>
</g>
<defs>
<clipPath id="clip0_399_412">
<rect width="35" height="35" fill="white" transform="translate(0.98291 0.80127)"/>
</clipPath>
</defs>
</svg>
