<svg width="16" height="16" viewBox="0 0 16 16" fill="none" xmlns="http://www.w3.org/2000/svg">
<path d="M13.4466 2.26883C11.9876 0.806328 10.0445 0.00195312 7.97962 0.00195312C3.71748 0.00195312 0.249266 3.47017 0.249266 7.73231C0.249266 9.09383 0.604445 10.424 1.27998 11.5975L0.183105 15.602L4.28159 14.526C5.4098 15.1423 6.68078 15.4661 7.97614 15.4661H7.97962C12.2383 15.4661 15.7831 11.9979 15.7831 7.73579C15.7831 5.67088 14.9056 3.73133 13.4466 2.26883ZM7.97962 14.1638C6.82355 14.1638 5.69185 13.8539 4.70641 13.2689L4.4731 13.1296L2.04257 13.7669L2.69025 11.3955L2.53703 11.1518C1.89284 10.128 1.55507 8.94758 1.55507 7.73231C1.55507 4.19097 4.43828 1.30776 7.9831 1.30776C9.6998 1.30776 11.312 1.97633 12.5238 3.1916C13.7356 4.40686 14.4808 6.0191 14.4773 7.73579C14.4773 11.2806 11.521 14.1638 7.97962 14.1638ZM11.5036 9.35151C11.312 9.25401 10.3614 8.7874 10.1838 8.72472C10.0062 8.65856 9.87739 8.62722 9.74855 8.82222C9.61971 9.01722 9.2506 9.44901 9.13569 9.58133C9.02427 9.71017 8.90936 9.72758 8.71784 9.63008C7.58266 9.06249 6.83748 8.61677 6.08882 7.33186C5.89034 6.99061 6.2873 7.01499 6.65641 6.27677C6.71909 6.14793 6.68775 6.03651 6.639 5.93901C6.59025 5.84151 6.20373 4.89088 6.04355 4.50436C5.88686 4.12829 5.72668 4.18052 5.60828 4.17356C5.49685 4.1666 5.36802 4.1666 5.23918 4.1666C5.11034 4.1666 4.90141 4.21535 4.72382 4.40686C4.54623 4.60186 4.04828 5.06847 4.04828 6.0191C4.04828 6.96972 4.74123 7.88901 4.83525 8.01785C4.93275 8.14668 6.19677 10.0967 8.13632 10.9359C9.36203 11.4652 9.84257 11.5104 10.4554 11.4199C10.828 11.3642 11.5976 10.9533 11.7577 10.5006C11.9179 10.0479 11.9179 9.66142 11.8692 9.58133C11.8239 9.49427 11.6951 9.44552 11.5036 9.35151Z" fill="#FF0000"/>
</svg>
