<svg width="36" height="36" viewBox="0 0 36 36" fill="none" xmlns="http://www.w3.org/2000/svg">
<g clip-path="url(#clip0_399_409)">
<path d="M1.229 10.4688C1.229 5.02604 5.64127 0.61377 11.0841 0.61377H26.3739C31.8167 0.61377 36.229 5.02604 36.229 10.4688V25.7587C36.229 31.2015 31.8167 35.6138 26.3739 35.6138H11.0841C5.64127 35.6138 1.229 31.2015 1.229 25.7587V10.4688Z" fill="black"/>
<path d="M5.83825 12.176C5.96126 10.2146 7.48381 8.67748 9.37922 8.58022C12.1239 8.43939 16.0469 8.26953 19.0027 8.26953C21.9585 8.26953 25.8815 8.43939 28.6261 8.58022C30.5216 8.67748 32.0441 10.2146 32.1671 12.176C32.285 14.0552 32.4011 16.3674 32.4011 18.1816C32.4011 19.9959 32.285 22.3081 32.1671 24.1873C32.0441 26.1487 30.5216 27.6858 28.6261 27.7831C25.8815 27.9239 21.9585 28.0938 19.0027 28.0938C16.0469 28.0938 12.1239 27.9239 9.37923 27.7831C7.48381 27.6858 5.96126 26.1487 5.83825 24.1873C5.7204 22.3081 5.60425 19.9959 5.60425 18.1816C5.60425 16.3674 5.7204 14.0552 5.83825 12.176Z" fill="white"/>
<path d="M16.541 13.7388V21.6685L24.1973 17.7036L16.541 13.7388Z" fill="black"/>
</g>
<defs>
<clipPath id="clip0_399_409">
<rect width="35" height="35" fill="white" transform="translate(0.98291 0.80127)"/>
</clipPath>
</defs>
</svg>
